<svg width="33" height="34" viewBox="0 0 33 34" fill="none" xmlns="http://www.w3.org/2000/svg">
<g id="Group 12">
<g id="#fdfdfdff">
<path id="Vector" d="M13.2883 2.47638C14.2751 1.65323 15.2067 0.7609 16.2443 0C20.3012 3.35257 24.2856 6.79391 28.3218 10.1718C29.6465 11.3489 31.0311 12.4545 32.3638 13.6224C32.6428 13.8541 32.8157 14.238 32.6543 14.5908C32.5367 14.9217 32.1816 15.1119 31.8392 15.0716C30.9919 15.0024 30.1399 15.09 29.2948 15.0278C27.5436 13.4875 25.7094 12.0418 23.9582 10.4993C21.3861 8.35491 18.8209 6.19903 16.2742 4.0247C16.2327 4.03161 16.1486 4.04545 16.1059 4.05237C11.9475 7.65857 7.75331 11.2244 3.57874 14.8133C3.44616 14.9044 3.32741 15.0635 3.14757 15.0439C2.33248 15.0393 1.51855 15.037 0.704617 15.052C0.159306 15.0889 -0.149666 14.3971 0.0728397 13.9498C0.220408 13.6535 0.505169 13.4679 0.74612 13.2558C4.92991 9.66688 9.09987 6.05953 13.2883 2.47638Z" fill="#FDFDFD"/>
</g>
<g id="#fcfdfdff">
<path id="Vector_2" d="M5.49026 2.92599C5.69778 2.57206 6.03903 2.19852 6.4875 2.23657C7.27837 2.24694 8.0681 2.24233 8.85897 2.25156C8.8509 3.03782 8.84514 3.82523 8.85897 4.6115C7.73953 5.65024 6.57512 6.63941 5.43262 7.65394C5.43492 7.58708 5.43953 7.45104 5.44184 7.38302C5.4845 5.89811 5.38996 4.40744 5.49026 2.92599Z" fill="#FCFDFD"/>
</g>
<g id="#a9b4beff">
<path id="Vector_3" d="M23.9537 2.25505C24.8564 2.27811 25.7625 2.21816 26.6641 2.27234C27.0976 2.48447 27.448 2.91796 27.4273 3.42061C27.4342 4.8375 27.4619 6.25438 27.4423 7.67127C26.2825 6.7213 25.1411 5.74942 24.009 4.76832C23.896 3.94171 23.9836 3.09089 23.9537 2.25505Z" fill="#A9B4BE"/>
</g>
<g id="#6f5296ff">
<path id="Vector_4" d="M15.0522 8.59704C15.3566 8.3411 15.6471 8.02982 16.0564 7.95373C16.4265 7.85689 16.7643 8.09092 17.0317 8.31804C18.0094 9.14235 19.0251 9.92169 20.0108 10.7379C19.7156 10.859 19.2787 10.9789 19.2787 11.3709C19.3363 11.8908 19.3617 12.4154 19.4401 12.9319C19.5969 13.0333 19.7687 13.1059 19.9358 13.1866C19.9693 13.6074 19.9232 14.0386 20.0154 14.4537C20.1779 14.6739 20.427 14.8099 20.6149 15.007C20.6737 15.2192 20.601 15.4451 20.5872 15.6607C21.1706 16.0977 21.5741 16.7744 21.6894 17.4926C21.7009 17.7797 21.9718 17.9192 22.162 18.0864C22.0133 18.2155 21.8658 18.3458 21.7182 18.476C21.996 18.7078 22.3419 18.6467 22.6612 18.5602C22.697 18.7539 22.7339 18.9464 22.7708 19.1401C22.9045 19.1424 23.0382 19.1447 23.172 19.1482C23.1224 19.313 23.0717 19.4791 23.0221 19.6451C23.3818 19.8641 23.6285 20.2019 23.6908 20.6239C23.1812 20.1569 22.7212 19.637 22.1816 19.2001C21.2997 18.476 20.3255 17.8593 19.2822 17.3923C19.296 17.3382 19.3225 17.2309 19.3352 17.1768C18.9444 17.0326 18.5558 16.8839 18.1685 16.7317C18.1604 16.4435 18.1627 16.1542 18.1247 15.8682C18.0232 15.2687 17.6197 14.7684 17.5033 14.1747C17.6059 14.049 17.7292 13.9406 17.848 13.83C17.856 13.1855 17.8422 12.541 17.8399 11.8954C17.3396 11.8874 16.8392 11.8712 16.34 11.8954C16.3377 11.9219 16.3342 11.9761 16.3319 12.0038C16.2074 11.9865 16.0864 11.9554 15.9619 11.9381C15.7232 11.7075 15.5111 11.4354 15.4973 11.0884C15.3912 10.9789 15.2863 10.8705 15.1802 10.7621C15.3439 10.3794 15.42 9.96435 15.4177 9.54816C15.45 9.19077 15.2044 8.89794 15.0522 8.59704Z" fill="#6F5296"/>
</g>
<g id="#5d5390ff">
<path id="Vector_5" d="M14.4114 9.12506C14.62 8.94291 14.8345 8.76882 15.0524 8.59705C15.2046 8.89795 15.4501 9.19078 15.4178 9.54817C15.4201 9.96436 15.3441 10.3794 15.1804 10.7622C15.2864 10.8705 15.3913 10.9789 15.4974 11.0884C15.5112 11.4354 15.7234 11.7075 15.962 11.9381C16.0865 11.9554 16.2076 11.9865 16.3321 12.0038C16.309 12.6171 16.3194 13.2305 16.3425 13.8438C16.844 13.8357 17.3455 13.8392 17.8481 13.83C17.7294 13.9406 17.606 14.049 17.5034 14.1747C17.6198 14.7684 18.0233 15.2688 18.1248 15.8682C18.1628 16.1542 18.1605 16.4435 18.1686 16.7318C18.556 16.8839 18.9445 17.0327 19.3353 17.1768C19.3226 17.2309 19.2961 17.3382 19.2823 17.3924C18.6113 17.103 17.9254 16.8378 17.2152 16.6591C16.935 16.5865 16.6272 16.5876 16.3816 16.4216C16.0289 16.1772 15.5839 16.1645 15.1907 16.017C15.3798 15.8867 15.57 15.7587 15.7614 15.6342C15.2242 15.1754 15.5181 14.4421 15.6058 13.8519C15.6438 13.1982 15.6127 12.541 15.6092 11.8862C15.0973 11.8608 14.5855 11.8839 14.0724 11.8804C13.9318 11.8608 13.7911 11.8332 13.6516 11.8078C13.6274 11.3467 13.541 10.874 13.639 10.4174C13.7358 10.2007 13.9514 10.0681 14.0943 9.88481C14.2938 9.6796 14.3387 9.38907 14.4114 9.12506Z" fill="#5D5390"/>
</g>
<g id="#4f538aff">
<path id="Vector_6" d="M12.3545 10.912C13.0462 10.3217 13.693 9.68184 14.4113 9.125C14.3386 9.38901 14.2937 9.67953 14.0942 9.88475C13.9513 10.0681 13.7357 10.2006 13.6388 10.4174C13.5408 10.8739 13.6273 11.3466 13.6515 11.8077C13.791 11.8331 13.9317 11.8608 14.0723 11.8804C14.0792 12.5341 14.0712 13.1877 14.1034 13.8414C14.6038 13.8334 15.1053 13.8391 15.6056 13.8518C15.518 14.4421 15.224 15.1753 15.7613 15.6341C15.5699 15.7587 15.3797 15.8866 15.1906 16.0169C15.5837 16.1645 16.0287 16.1772 16.3815 16.4216C15.0926 16.3766 13.8106 16.1403 12.5182 16.2878C11.913 16.2901 11.2962 16.0907 10.9065 15.6099C10.8569 15.2145 10.8846 14.8133 10.8604 14.4167C10.7278 14.2645 10.5065 14.1435 10.5226 13.9118C10.5076 13.3561 10.646 12.8084 10.8016 12.2781C11.2685 11.7766 11.853 11.3846 12.3545 10.912Z" fill="#4F538A"/>
</g>
<g id="#7c4e9dff">
<path id="Vector_7" d="M19.2788 11.3708C19.2788 10.9789 19.7158 10.859 20.0109 10.7379C20.4686 11.0895 20.9194 11.4515 21.3609 11.8251C21.7333 12.1387 22.1495 12.4061 22.4619 12.7843C22.1806 12.7393 21.9373 12.5975 21.7425 12.3946C21.6122 12.4949 21.4785 12.5906 21.3494 12.6932C21.5719 12.752 21.7967 12.8073 22.0215 12.8604C21.6514 13.2327 21.5892 13.8034 21.7829 14.2796C21.9235 14.6208 22.2993 14.811 22.3916 15.1788C22.485 15.5131 22.7029 15.7852 22.8908 16.07C23.0983 16.3536 23.0061 16.7202 23.0729 17.0442C23.262 17.3278 23.5468 17.5457 23.6701 17.8754C23.5249 17.9227 23.3807 17.9722 23.2355 18.0206C23.6528 18.8865 24.1197 19.7511 24.7919 20.4475C24.8218 19.3764 24.9072 18.3066 24.9625 17.2367C25.0328 18.9845 24.9498 20.7368 25.0098 22.4846C24.6074 21.839 24.1105 21.2522 23.6909 20.6238C23.6286 20.2019 23.3819 19.8641 23.0222 19.6451C23.0718 19.479 23.1225 19.313 23.1721 19.1482C23.0383 19.1447 22.9046 19.1424 22.7709 19.1401C22.734 18.9464 22.6971 18.7539 22.6614 18.5602C22.342 18.6467 21.9961 18.7078 21.7183 18.476C21.8659 18.3458 22.0134 18.2155 22.1622 18.0864C21.9719 17.9192 21.701 17.7797 21.6895 17.4926C21.5742 16.7744 21.1707 16.0976 20.5873 15.6607C20.6012 15.4451 20.6738 15.2192 20.615 15.007C20.4271 14.8099 20.1781 14.6738 20.0155 14.4536C19.9233 14.0386 19.9694 13.6074 19.936 13.1866C19.7688 13.1059 19.597 13.0333 19.4402 12.9318C19.3618 12.4154 19.3365 11.8908 19.2788 11.3708Z" fill="#7C4E9D"/>
</g>
<g id="#3e5285ff">
<path id="Vector_8" d="M9.48709 13.3469C9.92403 12.9895 10.3229 12.5814 10.8014 12.2782C10.6457 12.8085 10.5074 13.3561 10.5224 13.9118C10.5062 14.1436 10.7276 14.2646 10.8602 14.4168C10.8844 14.8134 10.8567 15.2146 10.9063 15.61C11.296 16.0908 11.9127 16.2902 12.518 16.2879C12.0096 16.3986 11.4816 16.3432 10.972 16.4562C10.3817 16.5796 9.78108 16.6672 9.20694 16.8563C9.01557 16.9093 8.82649 16.9935 8.62474 16.9831C8.37802 16.952 8.13823 17.0142 7.91457 17.1157C7.97452 16.9727 8.03331 16.8298 8.09096 16.6868C7.93417 16.6522 7.77853 16.6153 7.62289 16.5784C7.51221 16.0758 7.94108 15.7876 8.18088 15.4209C8.09787 15.2872 7.99988 15.1639 7.90534 15.0393C8.18549 14.6739 8.57632 14.4018 8.80113 13.9937C8.98213 13.7331 9.25767 13.5614 9.48709 13.3469Z" fill="#3E5285"/>
</g>
<g id="#874ca0ff">
<path id="Vector_9" d="M21.3491 12.6932C21.4782 12.5906 21.612 12.495 21.7423 12.3947C21.9371 12.5976 22.1803 12.7394 22.4616 12.7843C22.9528 13.0403 23.324 13.4818 23.7794 13.7989C24.3016 14.2116 24.9795 14.6727 24.9599 15.4221C24.9576 16.0262 24.9876 16.6326 24.9622 17.2367C24.9069 18.3066 24.8216 19.3765 24.7916 20.4475C24.1195 19.7512 23.6526 18.8865 23.2352 18.0207C23.3805 17.9723 23.5246 17.9227 23.6699 17.8754C23.5465 17.5457 23.2617 17.3278 23.0727 17.0442C23.0058 16.7203 23.098 16.3536 22.8905 16.07C22.7026 15.7853 22.4847 15.5132 22.3913 15.1789C22.2991 14.8111 21.9233 14.6209 21.7826 14.2796C21.5889 13.8035 21.6512 13.2328 22.0212 12.8604C21.7964 12.8074 21.5716 12.752 21.3491 12.6932Z" fill="#874CA0"/>
</g>
<g id="#354e7aff">
<path id="Vector_10" d="M7.6264 14.8387C8.01838 14.5574 8.36194 14.2046 8.80119 13.9937C8.57638 14.4018 8.18555 14.6739 7.9054 15.0393C7.99994 15.1638 8.09793 15.2872 8.18094 15.4209C7.94114 15.7875 7.51227 16.0757 7.62295 16.5784C7.77858 16.6153 7.93422 16.6522 8.09101 16.6868C8.03337 16.8297 7.97457 16.9727 7.91462 17.1156C8.13828 17.0142 8.37808 16.9519 8.6248 16.9831C7.5261 17.4869 6.35709 17.8477 5.30566 18.4611C5.24225 18.3815 5.17884 18.3031 5.11659 18.2247C4.99899 18.2316 4.88371 18.2478 4.76611 18.257C4.95403 18.0483 5.13619 17.835 5.31143 17.6171C5.24341 17.4154 5.14541 17.2159 5.14887 16.9992C5.24456 16.8078 5.43017 16.681 5.57543 16.5277C5.58235 16.4666 5.59734 16.3444 5.60541 16.2821C6.27523 15.7991 6.97388 15.3483 7.6264 14.8387Z" fill="#354E7A"/>
</g>
<g id="#fdfcfdff">
<path id="Vector_11" d="M29.959 15.4497C30.0155 18.8403 29.9717 22.2332 29.9832 25.625C29.1405 25.6192 28.2977 25.6089 27.4561 25.6227C27.3904 23.106 27.4688 20.5881 27.4238 18.0702C27.4469 17.8419 27.3523 17.533 27.5921 17.3923C28.3819 16.7467 29.1497 16.0711 29.959 15.4497Z" fill="#FDFCFD"/>
</g>
<g id="#2c446cff">
<path id="Vector_12" d="M4.51256 16.8954C4.8688 16.6775 5.21466 16.4377 5.60549 16.2821C5.59742 16.3444 5.58243 16.4666 5.57551 16.5277C5.43025 16.681 5.24464 16.8078 5.14895 16.9992C5.14549 17.2159 5.24348 17.4154 5.3115 17.6171C5.13627 17.835 4.95411 18.0483 4.76619 18.257C4.88379 18.2478 4.99907 18.2316 5.11667 18.2247C5.17892 18.3031 5.24233 18.3815 5.30574 18.461C4.56444 18.9187 3.807 19.3545 3.09337 19.856C2.92505 19.9782 2.74174 20.0774 2.55036 20.1569C2.49156 19.5332 2.52154 18.9061 2.48926 18.2812C3.11181 17.7486 3.83005 17.3451 4.51256 16.8954Z" fill="#2C446C"/>
</g>
<g id="#adeeffff">
<path id="Vector_13" d="M10.8433 18.5751C12.4619 18.129 14.1589 18.0852 15.8237 18.2316C18.4995 18.5763 21.0393 19.871 22.8955 21.8274C23.8085 22.7635 24.5971 23.8461 25.0698 25.0727C25.1263 25.2376 25.139 25.4128 25.1643 25.5858C24.9245 25.6238 24.6824 25.6354 24.4403 25.6296C24.4149 25.5835 24.3654 25.4912 24.3412 25.4451C24.0564 24.9436 23.6506 24.5251 23.2563 24.1089C21.2906 21.99 18.6252 20.4105 15.7107 20.1384C14.4956 19.9528 13.2585 20.0358 12.0457 20.1949C12.0676 19.826 12.0134 19.4432 12.1241 19.087C12.3282 18.944 12.5587 18.8472 12.7789 18.7342C12.6694 18.6028 12.5553 18.4483 12.3593 18.499C11.8901 18.5071 11.4324 18.7319 10.962 18.6293L10.8433 18.5751Z" fill="#ADEEFF"/>
</g>
<g id="#98e9feff">
<path id="Vector_14" d="M10.9617 18.6293C11.4321 18.7319 11.8898 18.5071 12.359 18.499C12.555 18.4483 12.6691 18.6028 12.7787 18.7342C12.5585 18.8472 12.3279 18.944 12.1238 19.087C12.0131 19.4432 12.0673 19.826 12.0454 20.1949C11.1427 20.316 10.2562 20.5419 9.39381 20.8301C9.16323 20.9051 8.93496 20.9904 8.71245 21.0872C8.60408 20.9178 8.49687 20.7483 8.38965 20.5788C8.60293 20.4566 8.82082 20.3448 9.04448 20.2422C8.87732 20.1799 8.71015 20.1177 8.54413 20.0554C8.76318 19.7188 9.02027 19.4086 9.26122 19.0881C9.79385 18.8553 10.3738 18.6212 10.9617 18.6293Z" fill="#98E9FE"/>
</g>
<g id="#8ae1fcff">
<path id="Vector_15" d="M6.68457 20.3425C7.50542 19.8548 8.34356 19.3683 9.26125 19.0881C9.0203 19.4086 8.76321 19.7188 8.54416 20.0554C8.71018 20.1177 8.87734 20.1799 9.04451 20.2422C8.82085 20.3448 8.60296 20.4566 8.38968 20.5788C8.49689 20.7483 8.60411 20.9178 8.71248 21.0872C8.26863 21.2809 7.82707 21.4804 7.40281 21.7144C6.96472 21.3824 6.997 20.7667 6.68457 20.3425Z" fill="#8AE1FC"/>
</g>
<g id="#387caeff">
<path id="Vector_16" d="M12.0457 20.195C13.2585 20.0359 14.4955 19.9529 15.7107 20.1385C18.6251 20.4106 21.2906 21.99 23.2562 24.109C23.6505 24.5252 24.0563 24.9437 24.3411 25.4452C24.3376 25.4947 24.3307 25.5939 24.3284 25.6423C23.684 25.6204 23.0407 25.6573 22.3974 25.6573L22.4896 25.6412L22.6279 25.6181C21.0923 23.7723 18.8499 22.5549 16.4969 22.1283C15.4974 21.9554 14.4748 21.9589 13.466 22.0327C13.1778 22.0511 12.8896 22.0857 12.6048 22.1387C12.6544 21.9692 12.704 21.7998 12.7547 21.6303C11.9742 21.8805 11.1418 21.7825 10.3348 21.8251C10.291 21.7202 10.2472 21.6165 10.2034 21.5116C10.4386 21.3582 10.668 21.1957 10.887 21.0204C10.4466 20.6803 9.8794 21.0493 9.39404 20.8302C10.2564 20.542 11.143 20.316 12.0457 20.195Z" fill="#387CAE"/>
</g>
<g id="#7dddf9ff">
<path id="Vector_17" d="M4.93701 21.5807C5.48693 21.1253 6.07721 20.7172 6.68477 20.3425C6.9972 20.7668 6.96492 21.3824 7.40302 21.7145C7.37074 21.7329 7.30733 21.7675 7.27505 21.7848C6.76893 22.0695 6.28011 22.3854 5.81089 22.7278C5.62643 22.6644 5.46734 22.5595 5.42929 22.3555C5.2921 22.2275 5.18488 22.0742 5.09611 21.9093C5.2944 21.7813 5.49155 21.6499 5.68292 21.5127C5.43275 21.5058 5.18257 21.5323 4.93701 21.5807Z" fill="#7DDDF9"/>
</g>
<g id="#2f83baff">
<path id="Vector_18" d="M8.7124 21.0873C8.93491 20.9904 9.16318 20.9051 9.39376 20.8302C9.87912 21.0492 10.4463 20.6803 10.8867 21.0204C10.6677 21.1957 10.4383 21.3582 10.2031 21.5116C10.2469 21.6165 10.2907 21.7202 10.3345 21.8251C11.1415 21.7825 11.9739 21.8805 12.7544 21.6303C12.7037 21.7998 12.6541 21.9692 12.6045 22.1387C11.5831 22.2886 10.5951 22.601 9.65315 23.0195C9.23812 22.6172 8.66975 22.8812 8.19015 22.9803C8.04143 22.9907 7.81316 23.0806 7.72324 22.9123C7.96534 22.8108 8.21897 22.7382 8.46108 22.6333C8.03912 22.5318 7.61256 22.45 7.18945 22.3543C7.28284 22.254 7.37622 22.1549 7.4696 22.0546C7.40504 21.9646 7.33933 21.8747 7.27477 21.7848C7.30705 21.7675 7.37045 21.7329 7.40274 21.7145C7.82699 21.4804 8.26855 21.281 8.7124 21.0873Z" fill="#2F83BA"/>
</g>
<g id="#6ed6f6ff">
<path id="Vector_19" d="M4.937 21.5807C5.18256 21.5323 5.43274 21.5058 5.68291 21.5127C5.49153 21.6499 5.29439 21.7813 5.09609 21.9093C5.18487 22.0741 5.29208 22.2275 5.42928 22.3554C5.46732 22.5595 5.62642 22.6644 5.81088 22.7278C5.28978 23.099 4.79981 23.5118 4.32136 23.9372C4.18071 23.9245 4.04121 23.9141 3.90056 23.9026C3.90633 23.6628 3.96973 23.4115 3.89134 23.1786C3.67114 22.9446 3.32412 23.197 3.06934 23.2466C3.64693 22.6563 4.26718 22.1133 4.90356 21.5865L4.937 21.5807Z" fill="#6ED6F6"/>
</g>
<g id="#2a89c0ff">
<path id="Vector_20" d="M5.81058 22.7278C6.2798 22.3854 6.76862 22.0696 7.27473 21.7848C7.33929 21.8747 7.40501 21.9646 7.46957 22.0546C7.37619 22.1549 7.2828 22.254 7.18942 22.3543C7.61253 22.45 8.03909 22.5319 8.46105 22.6333C8.21894 22.7382 7.96531 22.8109 7.7232 22.9123C7.81313 23.0806 8.0414 22.9907 8.19012 22.9803C8.66972 22.8812 9.23808 22.6172 9.65312 23.0195C9.30149 23.1936 8.95794 23.385 8.61668 23.5787C7.64135 24.147 6.76286 24.863 5.94201 25.6342C4.82256 25.6515 3.70196 25.6458 2.58252 25.6527L2.59866 25.6366C3.16011 25.0567 3.71695 24.4721 4.32106 23.9372C4.7995 23.5118 5.28948 23.0991 5.81058 22.7278Z" fill="#2A89C0"/>
</g>
<g id="#a1ebfeff">
<path id="Vector_21" d="M13.4661 22.0326C14.4748 21.9588 15.4974 21.9554 16.497 22.1283C18.85 22.5549 21.0924 23.7723 22.628 25.6181L22.4896 25.6411L22.3294 25.5281C20.049 23.7273 17.0457 22.8696 14.1601 23.2178C13.307 23.3285 12.4619 23.5048 11.6434 23.7677C11.5108 23.6155 11.3828 23.4587 11.2583 23.3008C11.4059 23.1152 11.5534 22.9296 11.7022 22.7439C12.3558 22.7901 13.0579 22.5687 13.4661 22.0326Z" fill="#A1EBFE"/>
</g>
<g id="#90e4feff">
<path id="Vector_22" d="M12.6046 22.1387C12.8894 22.0856 13.1776 22.051 13.4658 22.0326C13.0577 22.5687 12.3556 22.79 11.7019 22.7439C11.5532 22.9295 11.4056 23.1151 11.2581 23.3008C11.3826 23.4587 11.5106 23.6155 11.6431 23.7677C10.4707 24.1758 9.35583 24.7568 8.37127 25.5143C8.15222 24.8306 8.92465 24.2542 8.61683 23.5786C8.95808 23.3849 9.30164 23.1935 9.65327 23.0195C10.5952 22.601 11.5832 22.2885 12.6046 22.1387Z" fill="#90E4FE"/>
</g>
<g id="#5ed3f5ff">
<path id="Vector_23" d="M3.06899 23.2466C3.32378 23.1971 3.6708 22.9446 3.89099 23.1786C3.96939 23.4115 3.90598 23.6628 3.90022 23.9026C4.04087 23.9142 4.18037 23.9245 4.32102 23.9372C3.71691 24.4722 3.16007 25.0567 2.59862 25.6366C2.38649 25.0774 2.52253 24.4572 2.46143 23.8727C2.67471 23.6744 2.86032 23.4495 3.06899 23.2466Z" fill="#5ED3F5"/>
</g>
<g id="#316a99ff">
<path id="Vector_24" d="M14.1597 23.2178C17.0454 22.8696 20.0486 23.7274 22.329 25.5282C22.1342 25.4959 21.9417 25.4509 21.7572 25.3829C20.5813 24.9679 19.3673 24.637 18.1268 24.501C16.9958 24.4629 15.8441 24.4145 14.7373 24.6935C13.83 24.8849 12.9734 25.2492 12.1261 25.61C10.8245 25.6942 9.51826 25.6123 8.21436 25.6319C8.26623 25.5927 8.31927 25.5535 8.37115 25.5143C9.3557 24.7569 10.4705 24.1758 11.643 23.7677C12.4616 23.5049 13.3066 23.3285 14.1597 23.2178Z" fill="#316A99"/>
</g>
<g id="#82defbff">
<path id="Vector_25" d="M5.94189 25.6342C6.76274 24.8629 7.64124 24.147 8.61657 23.5786C8.92439 24.2542 8.15196 24.8306 8.37101 25.5143C8.31913 25.5535 8.2661 25.5927 8.21422 25.6319C7.45678 25.6377 6.69934 25.6342 5.94189 25.6342Z" fill="#82DEFB"/>
</g>
<g id="#fbfcfdff">
<path id="Vector_26" d="M10.9411 29.0952C11.815 28.6317 12.9575 28.8047 13.693 29.4537C13.4763 29.7005 13.2434 29.938 13.0728 30.2216C12.5782 29.9864 12.0144 29.765 11.4691 29.961C11.3262 30.1582 11.2293 30.5398 11.5141 30.6562C12.064 30.934 12.7373 30.964 13.2123 31.3917C13.8279 31.8863 13.8141 32.8709 13.3241 33.4462C13.0301 33.7298 12.66 33.9592 12.2439 33.9834C11.438 34.0618 10.5053 33.8704 9.95654 33.2444C10.103 32.9723 10.3347 32.7521 10.5076 32.4962C10.978 32.7429 11.4634 33.0623 12.0202 33.015C12.2531 33.0023 12.4249 32.8167 12.6116 32.6979C12.6474 32.3417 12.3684 32.0558 12.0363 31.9843C11.3988 31.8298 10.6748 31.6442 10.3151 31.039C9.95193 30.353 10.2897 29.4722 10.9411 29.0952Z" fill="#FBFCFD"/>
</g>
<g id="#fbfcfcff">
<path id="Vector_27" d="M0.703546 28.9707C1.35953 28.9742 2.01552 28.9742 2.67151 28.9753C3.41627 28.9626 4.191 29.4319 4.37777 30.1812C4.63832 30.9433 4.25441 31.8414 3.51772 32.1746C3.85782 32.7856 4.23366 33.3747 4.62794 33.9511C4.21291 33.9615 3.79787 33.965 3.38283 33.9638C3.03351 33.4888 2.75682 32.9654 2.42364 32.4801C2.29106 32.2518 1.98785 32.3671 1.77457 32.3302C1.74575 32.8824 1.7665 33.4358 1.74114 33.988C1.39758 33.9673 1.05517 33.9604 0.711616 33.9604C0.66896 32.2968 0.713922 30.6332 0.703546 28.9707ZM1.75843 30.0567C1.75151 30.4602 1.75728 30.8649 1.76304 31.2684C2.17808 31.2615 2.59657 31.2961 3.01046 31.2407C3.4889 31.0055 3.4301 30.2089 2.9067 30.0775C2.5274 30.0221 2.14119 30.0625 1.75843 30.0567Z" fill="#FBFCFC"/>
<path id="Vector_28" d="M5.65756 28.9753C6.74242 28.9683 7.82728 28.981 8.91213 28.9718C8.91905 29.3165 8.91213 29.6612 8.88677 30.0048C8.16507 30.0209 7.44221 29.999 6.72167 30.044C6.73204 30.3714 6.73665 30.6988 6.73896 31.0262C7.36958 31.0216 8.00021 31.0182 8.63083 31.0251C8.63429 31.3479 8.63775 31.6707 8.6366 31.9946C7.9979 32.0108 7.35921 31.9739 6.71936 31.9946C6.72051 32.3128 6.72282 32.631 6.72397 32.9504C7.44683 32.9423 8.17083 32.9481 8.89369 32.9239C8.91329 33.2663 8.91444 33.6098 8.90522 33.9534C7.82266 33.9603 6.74011 33.9511 5.65756 33.9661C5.59646 32.3036 5.65525 30.6389 5.65756 28.9753Z" fill="#FBFCFC"/>
</g>
<g id="#acb8c0ff">
<path id="Vector_29" d="M14.6904 28.9845C15.9067 28.9822 17.1218 28.9822 18.3381 28.9822C18.3485 29.3246 18.3474 29.6693 18.3278 30.0117C17.8885 30.014 17.4504 30.0278 17.0123 30.052C17.0642 31.3548 17.0538 32.6587 17.07 33.9626C16.7264 33.9672 16.3817 33.9695 16.0381 33.9672C16.0612 32.646 16.0624 31.3237 16.0577 30.0025C15.6035 29.9921 15.1504 29.9817 14.6962 29.9852C14.6973 29.6508 14.6962 29.3177 14.6904 28.9845Z" fill="#ACB8C0"/>
</g>
<g id="#adb6beff">
<path id="Vector_30" d="M18.9307 28.9822C19.348 28.9741 19.7653 28.9684 20.1838 28.9684C20.5781 29.6428 21.0404 30.2757 21.422 30.9571C21.7679 30.2677 22.2129 29.6347 22.6118 28.9765C23.0176 28.9753 23.4234 28.9765 23.8292 28.973C23.2816 30.0463 22.5173 30.9859 21.9132 32.027C21.9109 32.6749 21.9281 33.3217 21.9178 33.9696C21.5788 33.9673 21.241 33.9661 20.9021 33.9638C20.8986 33.3874 20.9078 32.8109 20.9102 32.2345C20.9194 32.0984 20.8883 31.9751 20.8145 31.8633C20.2138 30.8856 19.5601 29.9414 18.9307 28.9822Z" fill="#ADB6BE"/>
</g>
<g id="#aeb9c1ff">
<path id="Vector_31" d="M24.832 28.9845C25.1721 28.9776 25.5134 28.9741 25.8546 28.9741C25.8742 30.2953 25.8373 31.6177 25.8581 32.9389C26.5683 32.9389 27.2784 32.9285 27.9886 32.9412C27.9805 33.2801 27.984 33.6191 27.9921 33.958C26.9441 33.9765 25.895 33.9465 24.847 33.9638C24.8297 32.3036 24.8355 30.6446 24.832 28.9845Z" fill="#AEB9C1"/>
</g>
<g id="#b1bcc2ff">
<path id="Vector_32" d="M29.146 28.9707C30.2089 28.9915 31.2719 28.9788 32.3349 28.9822C32.3395 29.3131 32.3429 29.6451 32.3475 29.9772C31.6339 29.9922 30.9191 29.9875 30.2066 30.0429C30.2113 30.3784 30.2159 30.7139 30.217 31.0493C30.8234 31.0401 31.431 31.0367 32.0386 31.032C32.0455 31.3514 32.0524 31.6719 32.057 31.9924C31.4379 31.9866 30.82 31.997 30.2009 31.9878C30.2032 32.3083 30.2078 32.6299 30.2159 32.9516C30.9249 32.9608 31.6339 32.9527 32.3429 32.9447C32.3498 33.2836 32.3648 33.6237 32.3787 33.9638C31.3019 33.9753 30.2251 33.9396 29.1495 33.9719C29.1437 32.3048 29.1587 30.6378 29.146 28.9707Z" fill="#B1BCC2"/>
</g>
</g>
</svg>
